<svg xmlns="http://www.w3.org/2000/svg" xmlns:xlink="http://www.w3.org/1999/xlink" viewBox="0,0,256,256" width="500px" height="500px" fill-rule="nonzero"><g fill="#464646" fill-rule="nonzero" stroke="none" stroke-width="1" stroke-linecap="butt" stroke-linejoin="miter" stroke-miterlimit="10" stroke-dasharray="" stroke-dashoffset="0" font-family="none" font-weight="none" font-size="none" text-anchor="none" style="mix-blend-mode: normal"><g transform="scale(5.12,5.12)"><path d="M27.96094,3.01563c-0.59766,-0.04687 -1.20703,0.02734 -1.79687,0.22656c-2.49219,0.80469 -3.70703,3.50781 -2.92187,5.88672l1.11719,3.39844l-5.28516,1.92969l-1.07031,-3.25c-0.58984,-1.88672 -2.25,-3.05859 -4.04297,-3.19141c-0.59375,-0.04297 -1.20312,0.03125 -1.78906,0.22656c-2.5,0.80469 -3.71484,3.50781 -2.92969,5.89453l1.14844,3.49219l-3.33594,1.21875c-2.35547,0.83203 -3.59766,3.49609 -2.83594,5.91016c0.62891,1.99219 2.41016,3.24219 4.26953,3.24219c0.57813,0 1.07031,-0.14062 1.43359,-0.26953h0.00781l3.38281,-1.23828l1.625,4.93359l-3.86328,1.41406c-2.44922,0.81641 -3.59375,3.53125 -2.84375,5.91406c0.61719,1.95703 2.33594,3.24609 4.26172,3.24609c0.53516,0 0.95703,-0.14062 1.35938,-0.24609l0.04297,-0.00781l3.96875,-1.43359l1.15234,3.48438v0.01172c0.66797,1.88281 2.4375,3.19141 4.375,3.19141c0.58203,0 1.08594,-0.13672 1.46094,-0.26172c2.40234,-0.80859 3.71484,-3.47266 2.91797,-5.89062l-1.21094,-3.67578l5.28906,-1.91016l1.16797,3.53516v0.00781c0.66797,1.88281 2.4375,3.19141 4.375,3.19141c0.58203,0 1.08594,-0.13672 1.46094,-0.26172c2.40234,-0.8125 3.71484,-3.47656 2.91797,-5.89062l-1.22656,-3.72266l2.48828,-0.89844l0.01563,-0.00781c2.30078,-0.94531 3.54688,-3.60156 2.67188,-6.02344c-0.58203,-1.79687 -2.16406,-3.01953 -3.91016,-3.17578c-0.58594,-0.05078 -1.1875,0.01953 -1.77734,0.22656l-0.00391,0.00391l-2.44531,0.89453l-1.61719,-4.92187l2.95703,-1.07812c2.44922,-0.81641 3.59766,-3.52344 2.84766,-5.90625c-0.5625,-1.88281 -2.18359,-3.07812 -3.9375,-3.21094c-0.58594,-0.04688 -1.18359,0.02344 -1.76562,0.22656l-0.00391,0.00391l-3.01953,1.10156l-1.03906,-3.15234c-0.58984,-1.88672 -2.25,-3.05859 -4.04297,-3.1875zM27.82813,4.99219c1.01172,0.05859 1.92188,0.69531 2.26563,1.80469l0.00391,0.00781l1.06641,3.23828l-4.92187,1.79688l-1.10156,-3.33594c-0.46094,-1.40234 0.19531,-2.90234 1.64063,-3.36328h0.01172l0.00391,-0.00391c0.34375,-0.11719 0.69141,-0.16016 1.03125,-0.14453zM37.70313,9.99609c0.95313,0.05078 1.81641,0.68359 2.15625,1.81641v0.01563c0.45313,1.42969 -0.20312,2.95703 -1.57031,3.41406l-0.01172,0.00391l-2.94141,1.07422l-1.66797,-5.0625l3.0625,-1.11719c0.32422,-0.11719 0.65234,-0.16016 0.97266,-0.14453zM13.82813,10c1.01172,0.05469 1.92188,0.69531 2.26563,1.80469l0.00391,0.00781l1.09766,3.33203l-4.92187,1.79688l-1.13281,-3.43359c-0.46094,-1.40234 0.19531,-2.89844 1.64063,-3.36328h0.01172l0.00391,-0.00391c0.34375,-0.11719 0.69141,-0.16016 1.03125,-0.14062zM31.78906,11.94141l1.66797,5.0625l-4.92187,1.80078l-1.66797,-5.06641zM24.98828,14.42578l1.66797,5.0625l-5.28516,1.93359l-1.66797,-5.0625zM17.82422,17.04688l1.66406,5.0625l-4.92187,1.79688l-1.66406,-5.0625zM34.08203,18.90625l1.62109,4.92188l-4.92187,1.79688l-1.62109,-4.92187zM11.01953,19.53125l1.66797,5.0625l-3.42969,1.25c-0.23437,0.08594 -0.54297,0.15625 -0.76953,0.15625c-0.95313,0 -1.98438,-0.65625 -2.35938,-1.84375c-0.44141,-1.40234 0.32813,-2.97656 1.58984,-3.42187zM27.28125,21.39063l1.62109,4.92188l-5.28516,1.9375l-1.62109,-4.92578zM20.11328,24.00781l1.625,4.92969l-4.92187,1.80078l-1.625,-4.92969zM41.65625,24.00781c0.94922,0.08594 1.83594,0.75781 2.16797,1.80859l0.00391,0.02734l0.00781,0.01953c0.51172,1.39453 -0.24219,2.96094 -1.54297,3.5h-0.00391l-2.37109,0.85547l-1.71094,-5.17969l2.49219,-0.91016c0.3125,-0.10937 0.63672,-0.14844 0.95703,-0.12109zM36.32813,25.72656l1.70703,5.17578l-4.92969,1.78125l-1.69922,-5.15625zM29.53125,28.21484l1.69141,5.14453l-5.28906,1.91016l-1.6875,-5.11719zM22.36328,30.83984l1.68359,5.11328l-4.92578,1.77734l-1.67969,-5.08984zM38.66016,32.80078l1.21094,3.66797c0.44922,1.37109 -0.32031,2.91797 -1.65625,3.37109c-0.25,0.08203 -0.57812,0.15625 -0.82422,0.15625c-0.97266,0 -2.10937,-0.79297 -2.48437,-1.85547l-1.17578,-3.5625zM15.5625,33.32813l1.67578,5.08203l-3.91797,1.41406c-0.39062,0.10156 -0.76172,0.17578 -0.82812,0.17578c-1.08203,0 -1.96875,-0.61719 -2.35547,-1.84375h0.00391c-0.45312,-1.43359 0.20313,-2.96484 1.56641,-3.41797l0.01172,-0.00391zM24.67578,37.85156l1.19531,3.625c0.44922,1.36719 -0.32031,2.91406 -1.65625,3.36719c-0.25,0.08203 -0.57812,0.15625 -0.82422,0.15625c-0.97266,0 -2.10937,-0.79687 -2.48437,-1.85547l-0.00391,-0.00391l-1.15625,-3.51172z"></path></g></g></svg>