<svg xmlns="http://www.w3.org/2000/svg"  viewBox="0 0 50 50" width="500px" height="500px"><path d="M 27.960938 3.015625 C 27.363281 2.96875 26.753906 3.042969 26.164063 3.242188 C 23.671875 4.046875 22.457031 6.75 23.242188 9.128906 L 24.359375 12.527344 L 19.074219 14.457031 L 18.003906 11.207031 C 17.414063 9.320313 15.753906 8.148438 13.960938 8.015625 C 13.367188 7.972656 12.757813 8.046875 12.171875 8.242188 C 9.671875 9.046875 8.457031 11.75 9.242188 14.136719 L 10.390625 17.628906 L 7.054688 18.847656 C 4.699219 19.679688 3.457031 22.34375 4.21875 24.757813 C 4.847656 26.75 6.628906 28 8.488281 28 C 9.066406 28 9.558594 27.859375 9.921875 27.730469 L 9.929688 27.730469 L 13.3125 26.492188 L 14.9375 31.425781 L 11.074219 32.839844 C 8.625 33.65625 7.480469 36.371094 8.230469 38.753906 C 8.847656 40.710938 10.566406 42 12.492188 42 C 13.027344 42 13.449219 41.859375 13.851563 41.753906 L 13.894531 41.746094 L 17.863281 40.3125 L 19.015625 43.796875 L 19.015625 43.808594 C 19.683594 45.691406 21.453125 47 23.390625 47 C 23.972656 47 24.476563 46.863281 24.851563 46.738281 C 27.253906 45.929688 28.566406 43.265625 27.769531 40.847656 L 26.558594 37.171875 L 31.847656 35.261719 L 33.015625 38.796875 L 33.015625 38.804688 C 33.683594 40.6875 35.453125 41.996094 37.390625 41.996094 C 37.972656 41.996094 38.476563 41.859375 38.851563 41.734375 C 41.253906 40.921875 42.566406 38.257813 41.769531 35.84375 L 40.542969 32.121094 L 43.03125 31.222656 L 43.046875 31.214844 C 45.347656 30.269531 46.59375 27.613281 45.71875 25.191406 C 45.136719 23.394531 43.554688 22.171875 41.808594 22.015625 C 41.222656 21.964844 40.621094 22.035156 40.03125 22.242188 L 40.027344 22.246094 L 37.582031 23.140625 L 35.964844 18.21875 L 38.921875 17.140625 C 41.371094 16.324219 42.519531 13.617188 41.769531 11.234375 C 41.207031 9.351563 39.585938 8.15625 37.832031 8.023438 C 37.246094 7.976563 36.648438 8.046875 36.066406 8.25 L 36.0625 8.253906 L 33.042969 9.355469 L 32.003906 6.203125 C 31.414063 4.316406 29.753906 3.144531 27.960938 3.015625 Z M 27.828125 4.992188 C 28.839844 5.050781 29.75 5.6875 30.09375 6.796875 L 30.097656 6.804688 L 31.164063 10.042969 L 26.242188 11.839844 L 25.140625 8.503906 C 24.679688 7.101563 25.335938 5.601563 26.78125 5.140625 L 26.792969 5.140625 L 26.796875 5.136719 C 27.140625 5.019531 27.488281 4.976563 27.828125 4.992188 Z M 37.703125 9.996094 C 38.65625 10.046875 39.519531 10.679688 39.859375 11.8125 L 39.859375 11.828125 C 40.3125 13.257813 39.65625 14.785156 38.289063 15.242188 L 38.277344 15.246094 L 35.335938 16.320313 L 33.667969 11.257813 L 36.730469 10.140625 C 37.054688 10.023438 37.382813 9.980469 37.703125 9.996094 Z M 13.828125 10 C 14.839844 10.054688 15.75 10.695313 16.09375 11.804688 L 16.097656 11.8125 L 17.195313 15.144531 L 12.273438 16.941406 L 11.140625 13.507813 C 10.679688 12.105469 11.335938 10.609375 12.78125 10.144531 L 12.792969 10.144531 L 12.796875 10.140625 C 13.140625 10.023438 13.488281 9.980469 13.828125 10 Z M 31.789063 11.941406 L 33.457031 17.003906 L 28.535156 18.804688 L 26.867188 13.738281 Z M 24.988281 14.425781 L 26.65625 19.488281 L 21.371094 21.421875 L 19.703125 16.359375 Z M 17.824219 17.046875 L 19.488281 22.109375 L 14.566406 23.90625 L 12.902344 18.84375 Z M 34.082031 18.90625 L 35.703125 23.828125 L 30.78125 25.625 L 29.160156 20.703125 Z M 11.019531 19.53125 L 12.6875 24.59375 L 9.257813 25.84375 C 9.023438 25.929688 8.714844 26 8.488281 26 C 7.535156 26 6.503906 25.34375 6.128906 24.15625 C 5.6875 22.753906 6.457031 21.179688 7.71875 20.734375 Z M 27.28125 21.390625 L 28.902344 26.3125 L 23.617188 28.25 L 21.996094 23.324219 Z M 20.113281 24.007813 L 21.738281 28.9375 L 16.816406 30.738281 L 15.191406 25.808594 Z M 41.65625 24.007813 C 42.605469 24.09375 43.492188 24.765625 43.824219 25.816406 L 43.828125 25.84375 L 43.835938 25.863281 C 44.347656 27.257813 43.59375 28.824219 42.292969 29.363281 C 42.292969 29.363281 42.289063 29.363281 42.289063 29.363281 L 39.917969 30.21875 L 38.207031 25.039063 L 40.699219 24.128906 C 41.011719 24.019531 41.335938 23.980469 41.65625 24.007813 Z M 36.328125 25.726563 L 38.035156 30.902344 L 33.105469 32.683594 L 31.40625 27.527344 Z M 29.53125 28.214844 L 31.222656 33.359375 L 25.933594 35.269531 L 24.246094 30.152344 Z M 22.363281 30.839844 L 24.046875 35.953125 L 19.121094 37.730469 L 17.441406 32.640625 Z M 38.660156 32.800781 L 39.871094 36.46875 C 40.320313 37.839844 39.550781 39.386719 38.214844 39.839844 C 37.964844 39.921875 37.636719 39.996094 37.390625 39.996094 C 36.417969 39.996094 35.28125 39.203125 34.90625 38.140625 L 33.730469 34.578125 Z M 15.5625 33.328125 L 17.238281 38.410156 L 13.320313 39.824219 C 12.929688 39.925781 12.558594 40 12.492188 40 C 11.410156 40 10.523438 39.382813 10.136719 38.15625 L 10.140625 38.15625 C 9.6875 36.722656 10.34375 35.191406 11.707031 34.738281 L 11.71875 34.734375 Z M 24.675781 37.851563 L 25.871094 41.476563 C 26.320313 42.84375 25.550781 44.390625 24.214844 44.84375 C 23.964844 44.925781 23.636719 45 23.390625 45 C 22.417969 45 21.28125 44.203125 20.90625 43.144531 C 20.90625 43.144531 20.902344 43.140625 20.902344 43.140625 L 19.746094 39.628906 Z"/></svg>