<svg xmlns="http://www.w3.org/2000/svg" xmlns:xlink="http://www.w3.org/1999/xlink" viewBox="0,0,256,256" width="500px" height="500px" fill-rule="nonzero"><g fill="#464646" fill-rule="nonzero" stroke="none" stroke-width="1" stroke-linecap="butt" stroke-linejoin="miter" stroke-miterlimit="10" stroke-dasharray="" stroke-dashoffset="0" font-family="none" font-weight="none" font-size="none" text-anchor="none" style="mix-blend-mode: normal"><g transform="scale(5.12,5.12)"><path d="M9,4c-2.74952,0 -5,2.25048 -5,5v32c0,2.74952 2.25048,5 5,5h32c2.74952,0 5,-2.25048 5,-5v-32c0,-2.74952 -2.25048,-5 -5,-5zM9,6h32c1.66848,0 3,1.33152 3,3v32c0,1.66848 -1.33152,3 -3,3h-32c-1.66848,0 -3,-1.33152 -3,-3v-32c0,-1.66848 1.33152,-3 3,-3zM25,10c-8.70295,0 -16,5.67833 -16,12.94727c0,6.4852 5.78406,11.75277 13.33594,12.76563h0.00195c0.19879,0.04248 0.42756,0.11023 0.5625,0.17383c0.02758,0.013 0.0246,0.01414 0.03906,0.02344c-0.00265,0.08215 0.02293,0.46014 -0.01562,0.75c-0.0095,0.05611 -0.17325,1.02539 -0.20703,1.2168v0.00195c-0.04664,0.26694 -0.22285,0.80451 0.23242,1.49023c0.22764,0.34286 0.69911,0.62028 1.14063,0.6582c0.44151,0.03792 0.84667,-0.07119 1.29883,-0.26172c1.03507,-0.4288 3.10185,-1.65023 5.48828,-3.2832c2.38434,-1.63154 4.95921,-3.61104 6.64453,-5.51172c2.29202,-2.46674 3.47852,-5.1272 3.47852,-8.02344c0,-7.26804 -7.29697,-12.94727 -16,-12.94727zM25,12c7.83897,0 14,5.0413 14,10.94727c0,2.37272 -0.89401,4.46084 -2.94727,6.66797l-0.00977,0.00977l-0.00781,0.00977c-1.46188,1.65187 -3.97117,3.61058 -6.28711,5.19531c-2.25597,1.5437 -4.36199,2.72956 -4.99805,3.00977c0.06529,-0.38394 0.15039,-0.88281 0.15039,-0.88281l0.00391,-0.01758l0.00195,-0.01758c0.05563,-0.41836 0.20533,-1.05296 -0.11328,-1.83789v-0.00195v-0.00195c-0.23741,-0.5779 -0.67938,-0.8315 -1.04102,-1.00195c-0.36164,-0.17045 -0.70927,-0.25877 -0.99805,-0.32031l-0.03906,-0.00977l-0.04102,-0.00391c-6.82439,-0.88616 -11.67383,-5.49331 -11.67383,-10.79687c0,-5.90706 6.16095,-10.94727 14,-10.94727zM23.99219,18.99805c-0.50381,0.00935 -0.99219,0.39383 -0.99219,1.00195v6c0,0.552 0.448,1 1,1c0.552,0 1,-0.448 1,-1v-2.87891l2.18555,3.45898c0.566,0.792 1.81445,0.39292 1.81445,-0.58008v-6c0,-0.552 -0.448,-1 -1,-1c-0.552,0 -1,0.448 -1,1v3l-2.18555,-3.58008c-0.21225,-0.297 -0.51998,-0.42748 -0.82227,-0.42187zM15,19c-0.552,0 -1,0.448 -1,1v6c0,0.552 0.448,1 1,1h3c0.552,0 1,-0.448 1,-1c0,-0.552 -0.448,-1 -1,-1h-2v-5c0,-0.552 -0.448,-1 -1,-1zM21,19c-0.552,0 -1,0.448 -1,1v6c0,0.552 0.448,1 1,1c0.552,0 1,-0.448 1,-1v-6c0,-0.552 -0.448,-1 -1,-1zM31,19c-0.552,0 -1,0.448 -1,1v6c0,0.552 0.448,1 1,1h3c0.552,0 1,-0.448 1,-1c0,-0.552 -0.448,-1 -1,-1h-2v-1h2c0.553,0 1,-0.448 1,-1c0,-0.552 -0.447,-1 -1,-1h-2v-1h2c0.552,0 1,-0.448 1,-1c0,-0.552 -0.448,-1 -1,-1z"></path></g></g></svg>